<svg id="Layer_1" data-name="Layer 1" xmlns="http://www.w3.org/2000/svg" viewBox="0 0 76.21 24.59"><defs><style>.cls-1{fill:#fff;}</style></defs><path class="cls-1" d="M22.59,19.46H21.16v1.17h1.66V21h-2.1v-3.3H22.8V18H21.16V19.1h1.43Z"/><path class="cls-1" d="M24.12,19.42l.54-.89h.49l-.8,1.21L25.18,21h-.49l-.56-.92-.57.92h-.49l.83-1.24-.8-1.21h.48Z"/><path class="cls-1" d="M27.67,19.78a1.49,1.49,0,0,1-.26.91.83.83,0,0,1-.69.34.89.89,0,0,1-.7-.29v1.19H25.6v-3.4H26l0,.27a.87.87,0,0,1,.71-.32.81.81,0,0,1,.7.34,1.48,1.48,0,0,1,.26.92Zm-.42-.05a1.07,1.07,0,0,0-.18-.65.56.56,0,0,0-.48-.24.6.6,0,0,0-.57.34v1.17a.61.61,0,0,0,.57.34.57.57,0,0,0,.48-.24A1.19,1.19,0,0,0,27.25,19.73Z"/><path class="cls-1" d="M29.22,21a1.07,1.07,0,0,1-.81-.33,1.21,1.21,0,0,1-.31-.88v-.07a1.39,1.39,0,0,1,.14-.66,1.07,1.07,0,0,1,.39-.45,1,1,0,0,1,.54-.16.9.9,0,0,1,.74.32,1.34,1.34,0,0,1,.27.9v.18H28.52a.81.81,0,0,0,.21.58.67.67,0,0,0,.52.23.73.73,0,0,0,.37-.1,1,1,0,0,0,.27-.24l.26.2A1,1,0,0,1,29.22,21Zm0-2.2a.58.58,0,0,0-.43.18,1,1,0,0,0-.21.52h1.23v0a.83.83,0,0,0-.17-.5A.56.56,0,0,0,29.17,18.83Z"/><path class="cls-1" d="M31.85,18.9h-.21a.56.56,0,0,0-.56.35V21h-.42V18.53h.41v.28a.65.65,0,0,1,.59-.33.42.42,0,0,1,.18,0Z"/><path class="cls-1" d="M32.24,17.88a.28.28,0,0,1,.06-.18.26.26,0,0,1,.19-.07.25.25,0,0,1,.18.07.29.29,0,0,1,.07.18.28.28,0,0,1-.07.17.24.24,0,0,1-.18.06.25.25,0,0,1-.19-.06A.27.27,0,0,1,32.24,17.88Zm.45,3.1h-.42V18.53h.42Z"/><path class="cls-1" d="M34.38,21a1.07,1.07,0,0,1-.81-.33,1.21,1.21,0,0,1-.31-.88v-.07a1.39,1.39,0,0,1,.14-.66,1.07,1.07,0,0,1,.39-.45,1,1,0,0,1,.54-.16.9.9,0,0,1,.74.32,1.34,1.34,0,0,1,.27.9v.18H33.68a.81.81,0,0,0,.21.58.67.67,0,0,0,.52.23.73.73,0,0,0,.37-.1,1,1,0,0,0,.27-.24l.26.2A1,1,0,0,1,34.38,21Zm-.05-2.2a.58.58,0,0,0-.43.18,1,1,0,0,0-.21.52h1.23v0a.83.83,0,0,0-.17-.5A.56.56,0,0,0,34.33,18.83Z"/><path class="cls-1" d="M36.22,18.53v.31a.9.9,0,0,1,.74-.36c.52,0,.78.3.79.88V21h-.42V19.36a.58.58,0,0,0-.13-.39.45.45,0,0,0-.37-.13.59.59,0,0,0-.36.11.73.73,0,0,0-.24.28V21h-.42V18.53Z"/><path class="cls-1" d="M39.37,20.69a.65.65,0,0,0,.4-.14.48.48,0,0,0,.18-.34h.4a.79.79,0,0,1-.15.4.92.92,0,0,1-.35.3,1,1,0,0,1-.48.12,1,1,0,0,1-.79-.34,1.31,1.31,0,0,1-.3-.91v-.07a1.47,1.47,0,0,1,.13-.64.94.94,0,0,1,.38-.43,1,1,0,0,1,.58-.16,1,1,0,0,1,.69.25.88.88,0,0,1,.29.64H40a.55.55,0,0,0-.18-.39.57.57,0,0,0-.4-.15.59.59,0,0,0-.5.23,1.11,1.11,0,0,0-.17.66v.08a1.13,1.13,0,0,0,.17.66A.61.61,0,0,0,39.37,20.69Z"/><path class="cls-1" d="M41.84,21A1.06,1.06,0,0,1,41,20.7a1.22,1.22,0,0,1-.32-.88v-.07a1.53,1.53,0,0,1,.14-.66,1.23,1.23,0,0,1,.39-.45,1.07,1.07,0,0,1,.55-.16.92.92,0,0,1,.74.32,1.34,1.34,0,0,1,.27.9v.18H41.13a.86.86,0,0,0,.22.58.65.65,0,0,0,.51.23.74.74,0,0,0,.38-.1,1,1,0,0,0,.27-.24l.25.2A1,1,0,0,1,41.84,21Zm-.05-2.2a.58.58,0,0,0-.43.18.85.85,0,0,0-.21.52h1.23v0a.83.83,0,0,0-.18-.5A.53.53,0,0,0,41.79,18.83Z"/><path class="cls-1" d="M43.18,19.73a1.42,1.42,0,0,1,.27-.9.9.9,0,0,1,1.38,0V17.5h.42V21h-.39l0-.26a.86.86,0,0,1-.7.31.84.84,0,0,1-.69-.35,1.47,1.47,0,0,1-.27-.91Zm.42.05a1.15,1.15,0,0,0,.17.66.57.57,0,0,0,.48.23.61.61,0,0,0,.58-.36V19.19a.61.61,0,0,0-.58-.35.57.57,0,0,0-.48.24A1.22,1.22,0,0,0,43.6,19.78Z"/><path class="cls-1" d="M47.55,19.69V21h-.43v-3.3h1.21a1.18,1.18,0,0,1,.85.28,1,1,0,0,1,0,1.47,1.3,1.3,0,0,1-.86.26Zm0-.36h.78a.77.77,0,0,0,.54-.16.62.62,0,0,0,.19-.48.65.65,0,0,0-.19-.47.69.69,0,0,0-.51-.18h-.81Z"/><path class="cls-1" d="M51.17,18.9H51a.56.56,0,0,0-.56.35V21H50V18.53h.41v.28a.64.64,0,0,1,.58-.33.47.47,0,0,1,.19,0Z"/><path class="cls-1" d="M51.4,19.73a1.41,1.41,0,0,1,.14-.65,1,1,0,0,1,.39-.44,1,1,0,0,1,.58-.16,1.05,1.05,0,0,1,.81.35,1.31,1.31,0,0,1,.31.92v0a1.55,1.55,0,0,1-.14.65,1.1,1.1,0,0,1-.39.44,1.13,1.13,0,0,1-.59.16,1,1,0,0,1-.8-.35,1.31,1.31,0,0,1-.31-.92Zm.42.05a1.05,1.05,0,0,0,.19.66.6.6,0,0,0,.5.25.59.59,0,0,0,.51-.26,1.1,1.1,0,0,0,.19-.7,1,1,0,0,0-.19-.65.64.64,0,0,0-1,0A1.15,1.15,0,0,0,51.82,19.78Z"/><path class="cls-1" d="M54.36,21V18.85H54v-.32h.38v-.25a.82.82,0,0,1,.21-.61.79.79,0,0,1,.6-.22,1,1,0,0,1,.29,0l0,.34a.9.9,0,0,0-.23,0,.42.42,0,0,0-.32.12.5.5,0,0,0-.11.34v.26h.53v.32h-.53V21Z"/><path class="cls-1" d="M56.73,21a1.07,1.07,0,0,1-.81-.33,1.21,1.21,0,0,1-.31-.88v-.07a1.53,1.53,0,0,1,.14-.66,1,1,0,0,1,.93-.61.94.94,0,0,1,.75.32,1.4,1.4,0,0,1,.26.9v.18H56a.86.86,0,0,0,.21.58.68.68,0,0,0,.52.23.73.73,0,0,0,.37-.1.78.78,0,0,0,.27-.24l.26.2A1,1,0,0,1,56.73,21Zm0-2.2a.54.54,0,0,0-.42.18.92.92,0,0,0-.22.52h1.23v0a.83.83,0,0,0-.17-.5A.54.54,0,0,0,56.68,18.83Z"/><path class="cls-1" d="M59.61,20.33a.32.32,0,0,0-.13-.26A1.24,1.24,0,0,0,59,19.9a1.81,1.81,0,0,1-.51-.16.69.69,0,0,1-.27-.23.52.52,0,0,1-.09-.31.63.63,0,0,1,.25-.51,1,1,0,0,1,.66-.21,1,1,0,0,1,.67.22.66.66,0,0,1,.26.55h-.42a.37.37,0,0,0-.15-.3.54.54,0,0,0-.36-.12.53.53,0,0,0-.36.1.29.29,0,0,0-.13.26.26.26,0,0,0,.12.23,1.33,1.33,0,0,0,.43.14,2.75,2.75,0,0,1,.51.17.79.79,0,0,1,.29.24.58.58,0,0,1,.09.33.61.61,0,0,1-.26.53,1.1,1.1,0,0,1-.68.2,1.21,1.21,0,0,1-.52-.11.86.86,0,0,1-.36-.29.73.73,0,0,1-.13-.4h.42a.45.45,0,0,0,.17.33.7.7,0,0,0,.42.13.69.69,0,0,0,.38-.1A.3.3,0,0,0,59.61,20.33Z"/><path class="cls-1" d="M62,20.33a.29.29,0,0,0-.13-.26,1.11,1.11,0,0,0-.44-.17,1.61,1.61,0,0,1-.51-.16.66.66,0,0,1-.28-.23.52.52,0,0,1-.09-.31.64.64,0,0,1,.26-.51,1,1,0,0,1,.65-.21,1,1,0,0,1,.68.22.69.69,0,0,1,.26.55H62a.37.37,0,0,0-.15-.3.66.66,0,0,0-.73,0,.32.32,0,0,0-.13.26.26.26,0,0,0,.12.23,1.41,1.41,0,0,0,.44.14,2.75,2.75,0,0,1,.51.17.89.89,0,0,1,.29.24.58.58,0,0,1,.09.33.64.64,0,0,1-.26.53,1.15,1.15,0,0,1-.69.2,1.24,1.24,0,0,1-.52-.11.77.77,0,0,1-.35-.29.66.66,0,0,1-.13-.4h.42a.42.42,0,0,0,.17.33.65.65,0,0,0,.41.13.75.75,0,0,0,.39-.1A.31.31,0,0,0,62,20.33Z"/><path class="cls-1" d="M63,17.88A.28.28,0,0,1,63,17.7a.26.26,0,0,1,.19-.07.25.25,0,0,1,.18.07.29.29,0,0,1,.07.18.28.28,0,0,1-.07.17.24.24,0,0,1-.18.06.25.25,0,0,1-.19-.06A.27.27,0,0,1,63,17.88Zm.45,3.1H63V18.53h.42Z"/><path class="cls-1" d="M64,19.73a1.41,1.41,0,0,1,.15-.65,1,1,0,0,1,.39-.44,1,1,0,0,1,.58-.16,1.05,1.05,0,0,1,.81.35,1.36,1.36,0,0,1,.31.92v0a1.55,1.55,0,0,1-.14.65,1.1,1.1,0,0,1-.39.44,1.16,1.16,0,0,1-.59.16,1.05,1.05,0,0,1-.81-.35,1.36,1.36,0,0,1-.31-.92Zm.42.05a1.12,1.12,0,0,0,.19.66.63.63,0,0,0,.51.25.62.62,0,0,0,.51-.26,1.17,1.17,0,0,0,.19-.7,1.07,1.07,0,0,0-.19-.65.61.61,0,0,0-.51-.25.59.59,0,0,0-.5.24A1.15,1.15,0,0,0,64.4,19.78Z"/><path class="cls-1" d="M67.14,18.53v.31a.9.9,0,0,1,.74-.36c.52,0,.78.3.78.88V21h-.42V19.36a.54.54,0,0,0-.12-.39.46.46,0,0,0-.37-.13.59.59,0,0,0-.36.11.73.73,0,0,0-.24.28V21h-.42V18.53Z"/><path class="cls-1" d="M70.82,21a1.26,1.26,0,0,1-.06-.26.91.91,0,0,1-.7.31.84.84,0,0,1-.59-.21.64.64,0,0,1-.23-.52.67.67,0,0,1,.29-.59,1.36,1.36,0,0,1,.82-.22h.41V19.3a.47.47,0,0,0-.14-.35.49.49,0,0,0-.38-.13.66.66,0,0,0-.38.11.35.35,0,0,0-.15.28h-.42a.59.59,0,0,1,.13-.36.89.89,0,0,1,.35-.27,1.3,1.3,0,0,1,.49-.1,1,1,0,0,1,.67.21.8.8,0,0,1,.25.59v1.13a1.4,1.4,0,0,0,.08.54v0Zm-.69-.32a.71.71,0,0,0,.37-.1.67.67,0,0,0,.26-.27v-.5h-.33c-.52,0-.77.15-.77.45a.37.37,0,0,0,.13.31A.47.47,0,0,0,70.13,20.66Z"/><path class="cls-1" d="M72.29,21h-.42V17.5h.42Z"/><path class="cls-1" d="M74.39,20.33a.29.29,0,0,0-.13-.26,1.1,1.1,0,0,0-.45-.17,1.63,1.63,0,0,1-.5-.16.66.66,0,0,1-.28-.23.52.52,0,0,1-.09-.31.64.64,0,0,1,.26-.51,1,1,0,0,1,.65-.21,1,1,0,0,1,.68.22.69.69,0,0,1,.26.55h-.43a.36.36,0,0,0-.14-.3.66.66,0,0,0-.73,0,.29.29,0,0,0-.13.26.26.26,0,0,0,.12.23,1.41,1.41,0,0,0,.44.14,2.75,2.75,0,0,1,.51.17.89.89,0,0,1,.29.24.58.58,0,0,1,.09.33.64.64,0,0,1-.26.53,1.15,1.15,0,0,1-.69.2,1.24,1.24,0,0,1-.52-.11.77.77,0,0,1-.35-.29.66.66,0,0,1-.13-.4h.42a.42.42,0,0,0,.17.33.65.65,0,0,0,.41.13.75.75,0,0,0,.39-.1A.31.31,0,0,0,74.39,20.33Z"/><path class="cls-1" d="M20,9l.46.46a4.77,4.77,0,0,1,.43.64,3.82,3.82,0,0,1,0,3.64,4.08,4.08,0,0,1-.47.7l-.45.44-.19.16a3.8,3.8,0,0,1-2.68.74,3.76,3.76,0,0,1-2.82-1.69,3.68,3.68,0,0,1-.6-2.77,3.76,3.76,0,0,1,1.49-2.47,3.72,3.72,0,0,1,2-.75A3.86,3.86,0,0,1,20,9Zm-1.15,4.52a3.31,3.31,0,0,0-.22.47.1.1,0,0,1-.08.07.08.08,0,0,1-.07,0,.1.1,0,0,1,0-.1.18.18,0,0,0,.07-.1c0-.16.09-.31.08-.48a.43.43,0,0,1,0-.05.19.19,0,0,1,.1-.13A.08.08,0,0,0,18.8,13a1.29,1.29,0,0,0-.05-.21c0-.11-.08-.2-.12-.31a.2.2,0,0,0-.08-.08.14.14,0,0,1-.11-.16.37.37,0,0,0-.08-.29.27.27,0,0,1,0-.35,0,0,0,0,0,0,0,1.63,1.63,0,0,0-.07-.3s0-.08-.09,0a.1.1,0,0,1-.1,0s0-.06,0-.1l0-.08a.38.38,0,0,1,.22-.21.89.89,0,0,1,.23,0,.24.24,0,0,0,.22-.15.06.06,0,0,1,.07-.05c.09,0,.14-.06.13-.14a2.79,2.79,0,0,1,.14-.65.65.65,0,0,0,0-.19l-.06-.19a.33.33,0,0,1,0-.36l.18-.19s0-.08,0-.12a3.65,3.65,0,0,0-2.55-.4c-.09,0-.11.07-.05.14s.1.14.16.2a.09.09,0,0,1,0,.06A.32.32,0,0,0,17,9a.36.36,0,0,1,0,.09c0,.11,0,.2-.07.29a.35.35,0,0,0,.08.39.2.2,0,0,1,.08.12,1.63,1.63,0,0,0,0,.31,0,0,0,0,1,0,0c-.05.08,0,.13,0,.2a.09.09,0,0,0,.05,0,.39.39,0,0,1,.21.29.12.12,0,0,0,.07.1c.1,0,.1,0,0,.11a.58.58,0,0,1,.23.09.1.1,0,0,0,.09,0l.11,0s.08,0,.08.06a.2.2,0,0,0,.14.17.19.19,0,0,1,0,.31l-.15.09c-.08.05-.09.11,0,.17a1.59,1.59,0,0,0,.13.13s0,.08,0,.1l-.26.11c-.06,0-.07.07,0,.11a.18.18,0,0,0,.2,0,.33.33,0,0,1,.33.18.19.19,0,0,1,0,.08.41.41,0,0,1-.15.26c-.1.07-.23.08-.33.16h0c-.14,0-.29,0-.38-.15s-.11-.17-.23-.17h0c-.1-.06-.13-.19-.22-.26s0,0,0-.06,0-.06.06-.08a.08.08,0,0,0,0-.09s0-.07-.06-.08-.05,0-.06.06a.32.32,0,0,1-.39.16l-.33-.1a.1.1,0,0,0-.12,0s-.07.09-.14,0H16a.9.9,0,0,1-.28,0c-.08,0-.16-.12-.25,0s0,0-.06,0a2.22,2.22,0,0,1-.32-.14.05.05,0,0,1,0,0h0s0,0,0,0,0,0,0,0a1,1,0,0,1-.24-.1l-.11,0h0s0,0,0,0,.08,0,.11.07,0,.05,0,.09,0,.06-.1.07-.08,0,0,.09a0,0,0,0,1,0,.05s0,0-.05,0a.16.16,0,0,1-.13-.17s0,0,0-.05,0,.07-.07,0a.57.57,0,0,0-.28-.18,0,0,0,0,1,0,0s0,0,.05,0a1.47,1.47,0,0,0,.21,0,0,0,0,0,0,0,0s0,0,0,0a.5.5,0,0,1-.13-.21s-.05,0-.07,0a.12.12,0,0,1-.05.05s0,0,0,.09,0,.08,0,.1-.21.1-.16.27,0,.09,0,.12l-.06.06a.11.11,0,0,0,.06.18l.09,0c.07.05.07.12,0,.16s0,0,0,0,0,.11,0,.14.1.13.16.19h0c.09,0,.19,0,.27-.09a.26.26,0,0,1,.39,0,.11.11,0,0,0,.15,0,.16.16,0,0,1,.16,0,.09.09,0,0,1,0,.14.45.45,0,0,1-.12.06c-.07,0-.06,0,0,.07a.4.4,0,0,1,.1.22.26.26,0,0,0,.07.15,0,0,0,0,1,0,0c0,.12-.08.15-.21.13l-.06,0a5,5,0,0,1-.63-.27s0,0,0,0,0,0,0,0,.05,0,.06,0,0,0-.05,0a.15.15,0,0,1-.12-.08s0-.06-.05,0,0,0,0,.07,0,.09,0,.11,0,.1,0,.14.05.11.07.16a.1.1,0,0,0,.06.05c.06,0,.06,0,0,.09a0,0,0,0,0,0,0,.07.07,0,0,0,.09.05.08.08,0,0,1,.1,0,.6.6,0,0,1,.16.19s0,.07,0,.08-.05,0-.07,0a.18.18,0,0,0-.17-.1,3.6,3.6,0,0,0,.43.52.11.11,0,0,0,.14,0,.08.08,0,0,1,.11,0,1,1,0,0,0,.22.28.8.8,0,0,0,.13.13,4,4,0,0,0,.45.25,3.69,3.69,0,0,0,1,.3s.07,0,.07,0,.09-.1.14-.14,0-.05,0-.09,0-.06,0-.07a.3.3,0,0,0,.14-.11.13.13,0,0,1,.09-.05c.05,0,.07,0,.07-.07a.11.11,0,0,1,.08-.1.85.85,0,0,1,.31-.06c.13,0,.23-.06.35-.07h0a1.73,1.73,0,0,0,.23-.24s0-.06,0-.1a.21.21,0,0,1,.07-.26.28.28,0,0,0,.09-.17.06.06,0,0,1,.05-.06c.07,0,.07,0,.05-.09s0-.07,0-.1S18.82,13.56,18.81,13.48Z"/><path class="cls-1" d="M6.76,14.13a2.62,2.62,0,0,1-1.1.68,4.74,4.74,0,0,1-1.59.25A2.82,2.82,0,0,1,2,14.25,3.29,3.29,0,0,1,1.11,12v-.58a4,4,0,0,1,.35-1.74,2.61,2.61,0,0,1,1-1.14A2.79,2.79,0,0,1,4,8.13a3,3,0,0,1,2,.57,2.49,2.49,0,0,1,.81,1.72H5.19a1.33,1.33,0,0,0-.36-.8A1.18,1.18,0,0,0,4,9.38a1.07,1.07,0,0,0-1,.52,2.84,2.84,0,0,0-.34,1.48v.41A2.69,2.69,0,0,0,3.1,13.3a1.22,1.22,0,0,0,1.09.51,1.35,1.35,0,0,0,.94-.28v-1H4V11.36H6.76Z"/><path class="cls-1" d="M10.05,15.06a2.56,2.56,0,0,1-1.86-.69,2.36,2.36,0,0,1-.72-1.79v-.13a3,3,0,0,1,.29-1.35,2,2,0,0,1,.83-.91,2.49,2.49,0,0,1,1.3-.33,2.18,2.18,0,0,1,1.67.66,2.62,2.62,0,0,1,.61,1.83V13H9.06a1.2,1.2,0,0,0,.37.67,1.09,1.09,0,0,0,.73.24,1.43,1.43,0,0,0,1.16-.52l.71.84a2,2,0,0,1-.82.64A2.83,2.83,0,0,1,10.05,15.06Zm-.17-4c-.46,0-.73.3-.82.91h1.58v-.12a.84.84,0,0,0-.19-.59A.77.77,0,0,0,9.88,11.07Z"/><path class="cls-1" d="M27.83,12.88a2.45,2.45,0,0,1-.38,1.24,2.31,2.31,0,0,1-1,.84,3.23,3.23,0,0,1-1.43.3A2.63,2.63,0,0,1,23,14.39a3.58,3.58,0,0,1-.77-2.45v-.33a4,4,0,0,1,.35-1.73,2.6,2.6,0,0,1,1-1.15A2.76,2.76,0,0,1,25,8.32,2.93,2.93,0,0,1,27,9a2.53,2.53,0,0,1,.84,1.78H26.22a1.19,1.19,0,0,0-.31-.89A1.31,1.31,0,0,0,25,9.6a1,1,0,0,0-.89.45,2.92,2.92,0,0,0-.29,1.45V12a3.23,3.23,0,0,0,.27,1.54A1,1,0,0,0,25,14a1.3,1.3,0,0,0,.86-.26,1.12,1.12,0,0,0,.31-.84Z"/><path class="cls-1" d="M31,15.26a2.59,2.59,0,0,1-1.87-.69,2.4,2.4,0,0,1-.71-1.79v-.13a3.09,3.09,0,0,1,.29-1.36,2.09,2.09,0,0,1,.83-.91,2.52,2.52,0,0,1,1.29-.32,2.19,2.19,0,0,1,1.67.65,2.58,2.58,0,0,1,.61,1.83v.61H30a1.14,1.14,0,0,0,.37.66,1.07,1.07,0,0,0,.73.24,1.4,1.4,0,0,0,1.16-.52l.71.85a2,2,0,0,1-.83.64A2.75,2.75,0,0,1,31,15.26Zm-.17-4c-.46,0-.73.31-.82.91h1.57v-.12a.7.7,0,0,0-.75-.79Z"/><path class="cls-1" d="M35.34,15.16H33.77V8.05h1.57Z"/><path class="cls-1" d="M38.72,15.26a2.54,2.54,0,0,1-1.86-.69,2.37,2.37,0,0,1-.72-1.79v-.13a3.09,3.09,0,0,1,.29-1.36,2.15,2.15,0,0,1,.83-.91,2.56,2.56,0,0,1,1.3-.32,2.17,2.17,0,0,1,1.66.65,2.58,2.58,0,0,1,.62,1.83v.61H37.73a1.14,1.14,0,0,0,.37.66,1.09,1.09,0,0,0,.73.24A1.4,1.4,0,0,0,40,13.53l.71.85a2,2,0,0,1-.83.64A2.75,2.75,0,0,1,38.72,15.26Zm-.17-4c-.46,0-.73.31-.82.91h1.58v-.12a.81.81,0,0,0-.19-.58A.77.77,0,0,0,38.55,11.26Z"/><path class="cls-1" d="M44.09,13.76a.35.35,0,0,0-.21-.32,2.91,2.91,0,0,0-.79-.25,3.9,3.9,0,0,1-1-.34,1.73,1.73,0,0,1-.58-.52,1.24,1.24,0,0,1-.2-.69,1.36,1.36,0,0,1,.57-1.13,2.35,2.35,0,0,1,1.5-.45,2.59,2.59,0,0,1,1.59.45,1.4,1.4,0,0,1,.6,1.18H44c0-.4-.22-.6-.64-.6a.63.63,0,0,0-.41.13.46.46,0,0,0-.17.35.38.38,0,0,0,.21.33,1.86,1.86,0,0,0,.65.22,4.65,4.65,0,0,1,.78.2,1.41,1.41,0,0,1,1.13,1.39A1.31,1.31,0,0,1,45,14.83a2.7,2.7,0,0,1-1.57.43A2.63,2.63,0,0,1,42.26,15a1.85,1.85,0,0,1-.79-.63,1.38,1.38,0,0,1-.28-.83h1.46a.56.56,0,0,0,.23.5.94.94,0,0,0,.57.16.74.74,0,0,0,.48-.13A.42.42,0,0,0,44.09,13.76Z"/><path class="cls-1" d="M48.14,8.91v1.24H49v1.09h-.82v2.29a.55.55,0,0,0,.1.39c.07.08.2.11.41.11L49,14v1.11a2.84,2.84,0,0,1-.88.14A1.67,1.67,0,0,1,47,14.88a1.6,1.6,0,0,1-.38-1.16V11.24h-.64V10.15h.64V8.91Z"/><path class="cls-1" d="M49.57,8.86a.72.72,0,0,1,.24-.55,1,1,0,0,1,1.25,0,.75.75,0,0,1,0,1.1,1,1,0,0,1-1.25,0A.72.72,0,0,1,49.57,8.86Zm1.65,6.3H49.66v-5h1.56Z"/><path class="cls-1" d="M55,15.16a1.46,1.46,0,0,1-.15-.45,1.44,1.44,0,0,1-1.2.55,1.81,1.81,0,0,1-1.21-.43A1.38,1.38,0,0,1,52,13.75a1.41,1.41,0,0,1,.6-1.23,3,3,0,0,1,1.75-.42h.48v-.26c0-.47-.2-.7-.6-.7a.49.49,0,0,0-.55.55H52.08a1.41,1.41,0,0,1,.61-1.18,2.64,2.64,0,0,1,1.58-.45,2.3,2.3,0,0,1,1.52.47,1.63,1.63,0,0,1,.57,1.28V14a2.12,2.12,0,0,0,.21,1.05v.08Zm-1-1a.91.91,0,0,0,.49-.12.89.89,0,0,0,.27-.28v-.8h-.45c-.55,0-.82.24-.82.73a.43.43,0,0,0,.15.34A.48.48,0,0,0,54,14.14Z"/><path class="cls-1" d="M58.87,15.16H57.3V8.05h1.57Z"/><path class="cls-1" d="M63.89,13.91h2.83v1.25H62.26V8.42h1.63Z"/><path class="cls-1" d="M69.15,8.91v1.24H70v1.09h-.82v2.29a.55.55,0,0,0,.1.39.52.52,0,0,0,.4.11L70,14v1.11a2.84,2.84,0,0,1-.88.14A1.67,1.67,0,0,1,68,14.88a1.6,1.6,0,0,1-.38-1.16V11.24H67V10.15h.64V8.91Z"/><path class="cls-1" d="M70.39,12.62a3.05,3.05,0,0,1,.51-1.87,1.71,1.71,0,0,1,1.44-.69,1.45,1.45,0,0,1,1.13.53V8.05H75v7.11H73.63l-.08-.53a1.48,1.48,0,0,1-1.22.63,1.69,1.69,0,0,1-1.42-.69A3.16,3.16,0,0,1,70.39,12.62Zm1.56.1c0,.89.26,1.33.78,1.33a.77.77,0,0,0,.74-.43V11.71a.75.75,0,0,0-.73-.45q-.72,0-.78,1.17Z"/><path class="cls-1" d="M30.69,1.08a5.64,5.64,0,0,1,.53.31,1.63,1.63,0,0,1,.71,1.24A3.35,3.35,0,0,1,31.74,4a8.24,8.24,0,0,1-.54,1.26,8.64,8.64,0,0,1-.8,1.29c.06-.27.13-.55.19-.83a3.18,3.18,0,0,0,0-1.44,2,2,0,0,0-1.13-1.38A3.83,3.83,0,0,0,28,2.58a10,10,0,0,0-2.62.22,24.75,24.75,0,0,0-3.06.85c-1.2.42-2.36.91-3.51,1.43-.38.17-.75.36-1.12.54,0,0,0,0-.07,0L18,5.31c.37-.27.76-.51,1.15-.75s.71-.47,1.08-.68c.53-.29,1.06-.58,1.6-.85a27.55,27.55,0,0,1,2.61-1.15,18.56,18.56,0,0,1,2.73-.8,9.39,9.39,0,0,1,2-.22,4.7,4.7,0,0,0,.65,0Z"/><path class="cls-1" d="M4,23.56a2.24,2.24,0,0,0-.27-.13,1.8,1.8,0,0,1-.82-.7,2.18,2.18,0,0,1-.26-1.23c0-.17.06-.34.07-.51a2.38,2.38,0,0,1,.16-.58,8.94,8.94,0,0,1,.52-1.19A10.28,10.28,0,0,1,4.14,18a3.17,3.17,0,0,0-.17.69A3.39,3.39,0,0,0,4,20.52a2,2,0,0,0,1.22,1.2A5,5,0,0,0,7.33,22,13.24,13.24,0,0,0,10,21.55a27,27,0,0,0,3.28-1.13c.76-.31,1.51-.64,2.24-1q.74-.34,1.47-.72a1,1,0,0,1-.35.29c-.27.19-.53.39-.8.57-.43.29-.85.59-1.29.85s-1,.61-1.52.88a26.23,26.23,0,0,1-3.46,1.57,17.68,17.68,0,0,1-2.26.65,10.92,10.92,0,0,1-1.81.22,5.29,5.29,0,0,1-.8-.05s0,0-.07,0Z"/></svg>